<svg width="364" height="410" viewBox="0 0 364 410" fill="none" xmlns="http://www.w3.org/2000/svg">
<rect y="22" width="364" height="365" rx="50" fill="white"/>
<mask id="path-2-outside-1_49_18" maskUnits="userSpaceOnUse" x="86" y="97" width="193" height="230" fill="black">
<rect fill="white" x="86" y="97" width="193" height="230"/>
<path d="M93.3438 320V104H134.144V192.8H230.744V104H271.544V320H230.744V230.9H134.144V320H93.3438Z"/>
</mask>
<path d="M93.3438 320V104H134.144V192.8H230.744V104H271.544V320H230.744V230.9H134.144V320H93.3438Z" fill="#003249"/>
<path d="M93.3438 320H86.3438V327H93.3438V320ZM93.3438 104V97H86.3438V104H93.3438ZM134.144 104H141.144V97H134.144V104ZM134.144 192.8H127.144V199.8H134.144V192.8ZM230.744 192.8V199.8H237.744V192.8H230.744ZM230.744 104V97H223.744V104H230.744ZM271.544 104H278.544V97H271.544V104ZM271.544 320V327H278.544V320H271.544ZM230.744 320H223.744V327H230.744V320ZM230.744 230.9H237.744V223.9H230.744V230.9ZM134.144 230.9V223.9H127.144V230.9H134.144ZM134.144 320V327H141.144V320H134.144ZM100.344 320V104H86.3438V320H100.344ZM93.3438 111H134.144V97H93.3438V111ZM127.144 104V192.8H141.144V104H127.144ZM134.144 199.8H230.744V185.8H134.144V199.8ZM237.744 192.8V104H223.744V192.8H237.744ZM230.744 111H271.544V97H230.744V111ZM264.544 104V320H278.544V104H264.544ZM271.544 313H230.744V327H271.544V313ZM237.744 320V230.9H223.744V320H237.744ZM230.744 223.9H134.144V237.9H230.744V223.9ZM127.144 230.9V320H141.144V230.9H127.144ZM134.144 313H93.3438V327H134.144V313Z" fill="#003249" mask="url(#path-2-outside-1_49_18)"/>
</svg>
