<svg width="1406" height="546" viewBox="0 0 1406 546" fill="none" xmlns="http://www.w3.org/2000/svg">
<path d="M384.525 432.4C367.592 432.4 353.792 429.533 343.125 423.8C332.458 418.067 324.125 410.8 318.125 402C312.258 393.2 308.058 384.067 305.525 374.6C302.992 365 301.458 356.267 300.925 348.4C300.392 340.533 300.125 334.8 300.125 331.2V210H355.325V312C355.325 316.933 355.592 323.267 356.125 331C356.658 338.6 358.325 346.267 361.125 354C363.925 361.733 368.458 368.2 374.725 373.4C381.125 378.6 390.125 381.2 401.725 381.2C406.392 381.2 411.392 380.467 416.725 379C422.058 377.533 427.058 374.733 431.725 370.6C436.392 366.333 440.192 360.133 443.125 352C446.192 343.733 447.725 332.933 447.725 319.6L478.925 334.4C478.925 351.467 475.458 367.467 468.525 382.4C461.592 397.333 451.125 409.4 437.125 418.6C423.258 427.8 405.725 432.4 384.525 432.4ZM454.525 426V354.4H447.725V210H502.525V426H454.525ZM767.622 426V324C767.622 319.067 767.355 312.8 766.822 305.2C766.289 297.467 764.622 289.733 761.822 282C759.022 274.267 754.422 267.8 748.022 262.6C741.755 257.4 732.822 254.8 721.222 254.8C716.555 254.8 711.555 255.533 706.222 257C700.889 258.467 695.889 261.333 691.222 265.6C686.555 269.733 682.689 275.867 679.622 284C676.689 292.133 675.222 302.933 675.222 316.4L644.022 301.6C644.022 284.533 647.489 268.533 654.422 253.6C661.355 238.667 671.755 226.6 685.622 217.4C699.622 208.2 717.222 203.6 738.422 203.6C755.355 203.6 769.155 206.467 779.822 212.2C790.489 217.933 798.755 225.2 804.622 234C810.622 242.8 814.889 252 817.422 261.6C819.955 271.067 821.489 279.733 822.022 287.6C822.555 295.467 822.822 301.2 822.822 304.8V426H767.622ZM620.022 426V210H668.422V281.6H675.222V426H620.022ZM916.719 426V419.2L1022.72 257.2H928.719V210H1106.72V216.8L1001.12 378.8H1102.72V426H916.719ZM1260.67 432C1245.21 432 1232.07 429.067 1221.27 423.2C1210.61 417.2 1202.47 409.267 1196.87 399.4C1191.41 389.4 1188.67 378.4 1188.67 366.4C1188.67 356.4 1190.21 347.267 1193.27 339C1196.34 330.733 1201.27 323.467 1208.07 317.2C1215.01 310.8 1224.27 305.467 1235.87 301.2C1243.87 298.267 1253.41 295.667 1264.47 293.4C1275.54 291.133 1288.07 289 1302.07 287C1316.07 284.867 1331.47 282.533 1348.27 280L1328.67 290.8C1328.67 278 1325.61 268.6 1319.47 262.6C1313.34 256.6 1303.07 253.6 1288.67 253.6C1280.67 253.6 1272.34 255.533 1263.67 259.4C1255.01 263.267 1248.94 270.133 1245.47 280L1196.27 264.4C1201.74 246.533 1212.01 232 1227.07 220.8C1242.14 209.6 1262.67 204 1288.67 204C1307.74 204 1324.67 206.933 1339.47 212.8C1354.27 218.667 1365.47 228.8 1373.07 243.2C1377.34 251.2 1379.87 259.2 1380.67 267.2C1381.47 275.2 1381.87 284.133 1381.87 294V426H1334.27V381.6L1341.07 390.8C1330.54 405.333 1319.14 415.867 1306.87 422.4C1294.74 428.8 1279.34 432 1260.67 432ZM1272.27 389.2C1282.27 389.2 1290.67 387.467 1297.47 384C1304.41 380.4 1309.87 376.333 1313.87 371.8C1318.01 367.267 1320.81 363.467 1322.27 360.4C1325.07 354.533 1326.67 347.733 1327.07 340C1327.61 332.133 1327.87 325.6 1327.87 320.4L1343.87 324.4C1327.74 327.067 1314.67 329.333 1304.67 331.2C1294.67 332.933 1286.61 334.533 1280.47 336C1274.34 337.467 1268.94 339.067 1264.27 340.8C1258.94 342.933 1254.61 345.267 1251.27 347.8C1248.07 350.2 1245.67 352.867 1244.07 355.8C1242.61 358.733 1241.87 362 1241.87 365.6C1241.87 370.533 1243.07 374.8 1245.47 378.4C1248.01 381.867 1251.54 384.533 1256.07 386.4C1260.61 388.267 1266.01 389.2 1272.27 389.2Z" fill="white"/>
<path d="M21.3438 426V210H62.1438V298.8H158.744V210H199.544V426H158.744V336.9H62.1438V426H21.3438Z" fill="white"/>
<path d="M21.3438 426H14.3438V433H21.3438V426ZM21.3438 210V203H14.3438V210H21.3438ZM62.1438 210H69.1438V203H62.1438V210ZM62.1438 298.8H55.1438V305.8H62.1438V298.8ZM158.744 298.8V305.8H165.744V298.8H158.744ZM158.744 210V203H151.744V210H158.744ZM199.544 210H206.544V203H199.544V210ZM199.544 426V433H206.544V426H199.544ZM158.744 426H151.744V433H158.744V426ZM158.744 336.9H165.744V329.9H158.744V336.9ZM62.1438 336.9V329.9H55.1438V336.9H62.1438ZM62.1438 426V433H69.1438V426H62.1438ZM28.3438 426V210H14.3438V426H28.3438ZM21.3438 217H62.1438V203H21.3438V217ZM55.1438 210V298.8H69.1438V210H55.1438ZM62.1438 305.8H158.744V291.8H62.1438V305.8ZM165.744 298.8V210H151.744V298.8H165.744ZM158.744 217H199.544V203H158.744V217ZM192.544 210V426H206.544V210H192.544ZM199.544 419H158.744V433H199.544V419ZM165.744 426V336.9H151.744V426H165.744ZM158.744 329.9H62.1438V343.9H158.744V329.9ZM55.1438 336.9V426H69.1438V336.9H55.1438ZM62.1438 419H21.3438V433H62.1438V419Z" fill="white"/>
</svg>
