<svg width="1115" height="432" viewBox="0 0 1115 432" fill="none" xmlns="http://www.w3.org/2000/svg">
<path d="M613.556 173.77L658 80" stroke="#1573FF" stroke-width="26"/>
<path d="M823 300L861 392" stroke="#1573FF" stroke-width="26"/>
<path d="M350 300L308 402" stroke="#1573FF" stroke-width="26"/>
<path d="M21.4375 320V104H62.2375V192.8H158.837V104H199.638V320H158.837V230.9H62.2375V320H21.4375ZM348.55 324.8C335.85 324.8 325.5 322.65 317.5 318.35C309.5 314.05 303.25 308.6 298.75 302C294.35 295.4 291.2 288.55 289.3 281.45C287.4 274.25 286.25 267.7 285.85 261.8C285.45 255.9 285.25 251.6 285.25 248.9V158H326.65V234.5C326.65 238.2 326.85 242.95 327.25 248.75C327.65 254.45 328.9 260.2 331 266C333.1 271.8 336.5 276.65 341.2 280.55C346 284.45 352.75 286.4 361.45 286.4C364.95 286.4 368.7 285.85 372.7 284.75C376.7 283.65 380.45 281.55 383.95 278.45C387.45 275.25 390.3 270.6 392.5 264.5C394.8 258.3 395.95 250.2 395.95 240.2L419.35 251.3C419.35 264.1 416.75 276.1 411.55 287.3C406.35 298.5 398.5 307.55 388 314.45C377.6 321.35 364.45 324.8 348.55 324.8ZM401.05 320V266.3H395.95V158H437.05V320H401.05ZM635.873 320V243.5C635.873 239.8 635.673 235.1 635.273 229.4C634.873 223.6 633.623 217.8 631.523 212C629.423 206.2 625.973 201.35 621.173 197.45C616.473 193.55 609.773 191.6 601.073 191.6C597.573 191.6 593.823 192.15 589.823 193.25C585.823 194.35 582.073 196.5 578.573 199.7C575.073 202.8 572.173 207.4 569.873 213.5C567.673 219.6 566.573 227.7 566.573 237.8L543.173 226.7C543.173 213.9 545.773 201.9 550.973 190.7C556.173 179.5 563.973 170.45 574.373 163.55C584.873 156.65 598.073 153.2 613.973 153.2C626.673 153.2 637.023 155.35 645.023 159.65C653.023 163.95 659.223 169.4 663.623 176C668.123 182.6 671.323 189.5 673.223 196.7C675.123 203.8 676.273 210.3 676.673 216.2C677.073 222.1 677.273 226.4 677.273 229.1V320H635.873ZM525.173 320V158H561.473V211.7H566.573V320H525.173ZM747.695 320V314.9L827.195 193.4H756.695V158H890.195V163.1L810.995 284.6H887.195V320H747.695ZM1005.66 324.5C994.06 324.5 984.21 322.3 976.11 317.9C968.11 313.4 962.01 307.45 957.81 300.05C953.71 292.55 951.66 284.3 951.66 275.3C951.66 267.8 952.81 260.95 955.11 254.75C957.41 248.55 961.11 243.1 966.21 238.4C971.41 233.6 978.36 229.6 987.06 226.4C993.06 224.2 1000.21 222.25 1008.51 220.55C1016.81 218.85 1026.21 217.25 1036.71 215.75C1047.21 214.15 1058.76 212.4 1071.36 210.5L1056.66 218.6C1056.66 209 1054.36 201.95 1049.76 197.45C1045.16 192.95 1037.46 190.7 1026.66 190.7C1020.66 190.7 1014.41 192.15 1007.91 195.05C1001.41 197.95 996.86 203.1 994.26 210.5L957.36 198.8C961.46 185.4 969.16 174.5 980.46 166.1C991.76 157.7 1007.16 153.5 1026.66 153.5C1040.96 153.5 1053.66 155.7 1064.76 160.1C1075.86 164.5 1084.26 172.1 1089.96 182.9C1093.16 188.9 1095.06 194.9 1095.66 200.9C1096.26 206.9 1096.56 213.6 1096.56 221V320H1060.86V286.7L1065.96 293.6C1058.06 304.5 1049.51 312.4 1040.31 317.3C1031.21 322.1 1019.66 324.5 1005.66 324.5ZM1014.36 292.4C1021.86 292.4 1028.16 291.1 1033.26 288.5C1038.46 285.8 1042.56 282.75 1045.56 279.35C1048.66 275.95 1050.76 273.1 1051.86 270.8C1053.96 266.4 1055.16 261.3 1055.46 255.5C1055.86 249.6 1056.06 244.7 1056.06 240.8L1068.06 243.8C1055.96 245.8 1046.16 247.5 1038.66 248.9C1031.16 250.2 1025.11 251.4 1020.51 252.5C1015.91 253.6 1011.86 254.8 1008.36 256.1C1004.36 257.7 1001.11 259.45 998.61 261.35C996.21 263.15 994.41 265.15 993.21 267.35C992.11 269.55 991.56 272 991.56 274.7C991.56 278.4 992.46 281.6 994.26 284.3C996.16 286.9 998.81 288.9 1002.21 290.3C1005.61 291.7 1009.66 292.4 1014.36 292.4Z" fill="#1573FF"/>
<circle cx="658" cy="80" r="30" fill="#1573FF"/>
<circle cx="308" cy="402" r="30" fill="#1573FF"/>
<circle cx="861" cy="392" r="30" fill="#1573FF"/>
</svg>
